<?xml version="1.0" encoding="utf-8" standalone="no"?>
<!DOCTYPE svg PUBLIC "-//W3C//DTD SVG 1.1//EN"
  "http://www.w3.org/Graphics/SVG/1.1/DTD/svg11.dtd">
<!-- Created with matplotlib (https://matplotlib.org/) -->
<svg height="345.6pt" version="1.1" viewBox="0 0 460.8 345.6" width="460.8pt" xmlns="http://www.w3.org/2000/svg" xmlns:xlink="http://www.w3.org/1999/xlink">
 <metadata>
  <rdf:RDF xmlns:cc="http://creativecommons.org/ns#" xmlns:dc="http://purl.org/dc/elements/1.1/" xmlns:rdf="http://www.w3.org/1999/02/22-rdf-syntax-ns#">
   <cc:Work>
    <dc:type rdf:resource="http://purl.org/dc/dcmitype/StillImage"/>
    <dc:date>2022-03-04T12:05:37.792696</dc:date>
    <dc:format>image/svg+xml</dc:format>
    <dc:creator>
     <cc:Agent>
      <dc:title>Matplotlib v3.3.1, https://matplotlib.org/</dc:title>
     </cc:Agent>
    </dc:creator>
   </cc:Work>
  </rdf:RDF>
 </metadata>
 <defs>
  <style type="text/css">*{stroke-linecap:butt;stroke-linejoin:round;}</style>
 </defs>
 <g id="figure_1">
  <g id="patch_1">
   <path d="M 0 345.6 
L 460.8 345.6 
L 460.8 0 
L 0 0 
z
" style="fill:#ffffff;"/>
  </g>
  <g id="axes_1">
   <g id="patch_2">
    <path d="M 57.6 307.584 
L 414.72 307.584 
L 414.72 41.472 
L 57.6 41.472 
z
" style="fill:#ffffff;"/>
   </g>
   <g id="matplotlib.axis_1">
    <g id="xtick_1">
     <g id="line2d_1">
      <defs>
       <path d="M 0 0 
L 0 3.5 
" id="mb741439a5f" style="stroke:#000000;stroke-width:0.8;"/>
      </defs>
      <g>
       <use style="stroke:#000000;stroke-width:0.8;" x="57.6" xlink:href="#mb741439a5f" y="307.584"/>
      </g>
     </g>
     <g id="text_1">
      <!-- −10.0 -->
      <g transform="translate(42.277344 322.182437)scale(0.1 -0.1)">
       <defs>
        <path d="M 10.59375 35.5 
L 73.1875 35.5 
L 73.1875 27.203125 
L 10.59375 27.203125 
z
" id="DejaVuSans-8722"/>
        <path d="M 12.40625 8.296875 
L 28.515625 8.296875 
L 28.515625 63.921875 
L 10.984375 60.40625 
L 10.984375 69.390625 
L 28.421875 72.90625 
L 38.28125 72.90625 
L 38.28125 8.296875 
L 54.390625 8.296875 
L 54.390625 0 
L 12.40625 0 
z
" id="DejaVuSans-49"/>
        <path d="M 31.78125 66.40625 
Q 24.171875 66.40625 20.328125 58.90625 
Q 16.5 51.421875 16.5 36.375 
Q 16.5 21.390625 20.328125 13.890625 
Q 24.171875 6.390625 31.78125 6.390625 
Q 39.453125 6.390625 43.28125 13.890625 
Q 47.125 21.390625 47.125 36.375 
Q 47.125 51.421875 43.28125 58.90625 
Q 39.453125 66.40625 31.78125 66.40625 
z
M 31.78125 74.21875 
Q 44.046875 74.21875 50.515625 64.515625 
Q 56.984375 54.828125 56.984375 36.375 
Q 56.984375 17.96875 50.515625 8.265625 
Q 44.046875 -1.421875 31.78125 -1.421875 
Q 19.53125 -1.421875 13.0625 8.265625 
Q 6.59375 17.96875 6.59375 36.375 
Q 6.59375 54.828125 13.0625 64.515625 
Q 19.53125 74.21875 31.78125 74.21875 
z
" id="DejaVuSans-48"/>
        <path d="M 10.6875 12.40625 
L 21 12.40625 
L 21 0 
L 10.6875 0 
z
" id="DejaVuSans-46"/>
       </defs>
       <use xlink:href="#DejaVuSans-8722"/>
       <use x="83.789062" xlink:href="#DejaVuSans-49"/>
       <use x="147.412109" xlink:href="#DejaVuSans-48"/>
       <use x="211.035156" xlink:href="#DejaVuSans-46"/>
       <use x="242.822266" xlink:href="#DejaVuSans-48"/>
      </g>
     </g>
    </g>
    <g id="xtick_2">
     <g id="line2d_2">
      <g>
       <use style="stroke:#000000;stroke-width:0.8;" x="102.24" xlink:href="#mb741439a5f" y="307.584"/>
      </g>
     </g>
     <g id="text_2">
      <!-- −7.5 -->
      <g transform="translate(90.098594 322.182437)scale(0.1 -0.1)">
       <defs>
        <path d="M 8.203125 72.90625 
L 55.078125 72.90625 
L 55.078125 68.703125 
L 28.609375 0 
L 18.3125 0 
L 43.21875 64.59375 
L 8.203125 64.59375 
z
" id="DejaVuSans-55"/>
        <path d="M 10.796875 72.90625 
L 49.515625 72.90625 
L 49.515625 64.59375 
L 19.828125 64.59375 
L 19.828125 46.734375 
Q 21.96875 47.46875 24.109375 47.828125 
Q 26.265625 48.1875 28.421875 48.1875 
Q 40.625 48.1875 47.75 41.5 
Q 54.890625 34.8125 54.890625 23.390625 
Q 54.890625 11.625 47.5625 5.09375 
Q 40.234375 -1.421875 26.90625 -1.421875 
Q 22.3125 -1.421875 17.546875 -0.640625 
Q 12.796875 0.140625 7.71875 1.703125 
L 7.71875 11.625 
Q 12.109375 9.234375 16.796875 8.0625 
Q 21.484375 6.890625 26.703125 6.890625 
Q 35.15625 6.890625 40.078125 11.328125 
Q 45.015625 15.765625 45.015625 23.390625 
Q 45.015625 31 40.078125 35.4375 
Q 35.15625 39.890625 26.703125 39.890625 
Q 22.75 39.890625 18.8125 39.015625 
Q 14.890625 38.140625 10.796875 36.28125 
z
" id="DejaVuSans-53"/>
       </defs>
       <use xlink:href="#DejaVuSans-8722"/>
       <use x="83.789062" xlink:href="#DejaVuSans-55"/>
       <use x="147.412109" xlink:href="#DejaVuSans-46"/>
       <use x="179.199219" xlink:href="#DejaVuSans-53"/>
      </g>
     </g>
    </g>
    <g id="xtick_3">
     <g id="line2d_3">
      <g>
       <use style="stroke:#000000;stroke-width:0.8;" x="146.88" xlink:href="#mb741439a5f" y="307.584"/>
      </g>
     </g>
     <g id="text_3">
      <!-- −5.0 -->
      <g transform="translate(134.738594 322.182437)scale(0.1 -0.1)">
       <use xlink:href="#DejaVuSans-8722"/>
       <use x="83.789062" xlink:href="#DejaVuSans-53"/>
       <use x="147.412109" xlink:href="#DejaVuSans-46"/>
       <use x="179.199219" xlink:href="#DejaVuSans-48"/>
      </g>
     </g>
    </g>
    <g id="xtick_4">
     <g id="line2d_4">
      <g>
       <use style="stroke:#000000;stroke-width:0.8;" x="191.52" xlink:href="#mb741439a5f" y="307.584"/>
      </g>
     </g>
     <g id="text_4">
      <!-- −2.5 -->
      <g transform="translate(179.378594 322.182437)scale(0.1 -0.1)">
       <defs>
        <path d="M 19.1875 8.296875 
L 53.609375 8.296875 
L 53.609375 0 
L 7.328125 0 
L 7.328125 8.296875 
Q 12.9375 14.109375 22.625 23.890625 
Q 32.328125 33.6875 34.8125 36.53125 
Q 39.546875 41.84375 41.421875 45.53125 
Q 43.3125 49.21875 43.3125 52.78125 
Q 43.3125 58.59375 39.234375 62.25 
Q 35.15625 65.921875 28.609375 65.921875 
Q 23.96875 65.921875 18.8125 64.3125 
Q 13.671875 62.703125 7.8125 59.421875 
L 7.8125 69.390625 
Q 13.765625 71.78125 18.9375 73 
Q 24.125 74.21875 28.421875 74.21875 
Q 39.75 74.21875 46.484375 68.546875 
Q 53.21875 62.890625 53.21875 53.421875 
Q 53.21875 48.921875 51.53125 44.890625 
Q 49.859375 40.875 45.40625 35.40625 
Q 44.1875 33.984375 37.640625 27.21875 
Q 31.109375 20.453125 19.1875 8.296875 
z
" id="DejaVuSans-50"/>
       </defs>
       <use xlink:href="#DejaVuSans-8722"/>
       <use x="83.789062" xlink:href="#DejaVuSans-50"/>
       <use x="147.412109" xlink:href="#DejaVuSans-46"/>
       <use x="179.199219" xlink:href="#DejaVuSans-53"/>
      </g>
     </g>
    </g>
    <g id="xtick_5">
     <g id="line2d_5">
      <g>
       <use style="stroke:#000000;stroke-width:0.8;" x="236.16" xlink:href="#mb741439a5f" y="307.584"/>
      </g>
     </g>
     <g id="text_5">
      <!-- 0.0 -->
      <g transform="translate(228.208438 322.182437)scale(0.1 -0.1)">
       <use xlink:href="#DejaVuSans-48"/>
       <use x="63.623047" xlink:href="#DejaVuSans-46"/>
       <use x="95.410156" xlink:href="#DejaVuSans-48"/>
      </g>
     </g>
    </g>
    <g id="xtick_6">
     <g id="line2d_6">
      <g>
       <use style="stroke:#000000;stroke-width:0.8;" x="280.8" xlink:href="#mb741439a5f" y="307.584"/>
      </g>
     </g>
     <g id="text_6">
      <!-- 2.5 -->
      <g transform="translate(272.848437 322.182437)scale(0.1 -0.1)">
       <use xlink:href="#DejaVuSans-50"/>
       <use x="63.623047" xlink:href="#DejaVuSans-46"/>
       <use x="95.410156" xlink:href="#DejaVuSans-53"/>
      </g>
     </g>
    </g>
    <g id="xtick_7">
     <g id="line2d_7">
      <g>
       <use style="stroke:#000000;stroke-width:0.8;" x="325.44" xlink:href="#mb741439a5f" y="307.584"/>
      </g>
     </g>
     <g id="text_7">
      <!-- 5.0 -->
      <g transform="translate(317.488437 322.182437)scale(0.1 -0.1)">
       <use xlink:href="#DejaVuSans-53"/>
       <use x="63.623047" xlink:href="#DejaVuSans-46"/>
       <use x="95.410156" xlink:href="#DejaVuSans-48"/>
      </g>
     </g>
    </g>
    <g id="xtick_8">
     <g id="line2d_8">
      <g>
       <use style="stroke:#000000;stroke-width:0.8;" x="370.08" xlink:href="#mb741439a5f" y="307.584"/>
      </g>
     </g>
     <g id="text_8">
      <!-- 7.5 -->
      <g transform="translate(362.128438 322.182437)scale(0.1 -0.1)">
       <use xlink:href="#DejaVuSans-55"/>
       <use x="63.623047" xlink:href="#DejaVuSans-46"/>
       <use x="95.410156" xlink:href="#DejaVuSans-53"/>
      </g>
     </g>
    </g>
    <g id="xtick_9">
     <g id="line2d_9">
      <g>
       <use style="stroke:#000000;stroke-width:0.8;" x="414.72" xlink:href="#mb741439a5f" y="307.584"/>
      </g>
     </g>
     <g id="text_9">
      <!-- 10.0 -->
      <g transform="translate(403.587188 322.182437)scale(0.1 -0.1)">
       <use xlink:href="#DejaVuSans-49"/>
       <use x="63.623047" xlink:href="#DejaVuSans-48"/>
       <use x="127.246094" xlink:href="#DejaVuSans-46"/>
       <use x="159.033203" xlink:href="#DejaVuSans-48"/>
      </g>
     </g>
    </g>
    <g id="text_10">
     <!-- $x$ -->
     <g transform="translate(233.16 335.860562)scale(0.1 -0.1)">
      <defs>
       <path d="M 60.015625 54.6875 
L 34.90625 27.875 
L 50.296875 0 
L 39.984375 0 
L 28.421875 21.6875 
L 8.296875 0 
L -2.59375 0 
L 24.3125 28.8125 
L 10.015625 54.6875 
L 20.3125 54.6875 
L 30.8125 34.90625 
L 49.125 54.6875 
z
" id="DejaVuSans-Oblique-120"/>
      </defs>
      <use transform="translate(0 0.3125)" xlink:href="#DejaVuSans-Oblique-120"/>
     </g>
    </g>
   </g>
   <g id="matplotlib.axis_2">
    <g id="ytick_1">
     <g id="line2d_10">
      <defs>
       <path d="M 0 0 
L -3.5 0 
" id="ma9a51d9964" style="stroke:#000000;stroke-width:0.8;"/>
      </defs>
      <g>
       <use style="stroke:#000000;stroke-width:0.8;" x="57.6" xlink:href="#ma9a51d9964" y="279.217456"/>
      </g>
     </g>
     <g id="text_11">
      <!-- −0.6 -->
      <g transform="translate(26.317187 283.016674)scale(0.1 -0.1)">
       <defs>
        <path d="M 33.015625 40.375 
Q 26.375 40.375 22.484375 35.828125 
Q 18.609375 31.296875 18.609375 23.390625 
Q 18.609375 15.53125 22.484375 10.953125 
Q 26.375 6.390625 33.015625 6.390625 
Q 39.65625 6.390625 43.53125 10.953125 
Q 47.40625 15.53125 47.40625 23.390625 
Q 47.40625 31.296875 43.53125 35.828125 
Q 39.65625 40.375 33.015625 40.375 
z
M 52.59375 71.296875 
L 52.59375 62.3125 
Q 48.875 64.0625 45.09375 64.984375 
Q 41.3125 65.921875 37.59375 65.921875 
Q 27.828125 65.921875 22.671875 59.328125 
Q 17.53125 52.734375 16.796875 39.40625 
Q 19.671875 43.65625 24.015625 45.921875 
Q 28.375 48.1875 33.59375 48.1875 
Q 44.578125 48.1875 50.953125 41.515625 
Q 57.328125 34.859375 57.328125 23.390625 
Q 57.328125 12.15625 50.6875 5.359375 
Q 44.046875 -1.421875 33.015625 -1.421875 
Q 20.359375 -1.421875 13.671875 8.265625 
Q 6.984375 17.96875 6.984375 36.375 
Q 6.984375 53.65625 15.1875 63.9375 
Q 23.390625 74.21875 37.203125 74.21875 
Q 40.921875 74.21875 44.703125 73.484375 
Q 48.484375 72.75 52.59375 71.296875 
z
" id="DejaVuSans-54"/>
       </defs>
       <use xlink:href="#DejaVuSans-8722"/>
       <use x="83.789062" xlink:href="#DejaVuSans-48"/>
       <use x="147.412109" xlink:href="#DejaVuSans-46"/>
       <use x="179.199219" xlink:href="#DejaVuSans-54"/>
      </g>
     </g>
    </g>
    <g id="ytick_2">
     <g id="line2d_11">
      <g>
       <use style="stroke:#000000;stroke-width:0.8;" x="57.6" xlink:href="#ma9a51d9964" y="247.476801"/>
      </g>
     </g>
     <g id="text_12">
      <!-- −0.4 -->
      <g transform="translate(26.317187 251.27602)scale(0.1 -0.1)">
       <defs>
        <path d="M 37.796875 64.3125 
L 12.890625 25.390625 
L 37.796875 25.390625 
z
M 35.203125 72.90625 
L 47.609375 72.90625 
L 47.609375 25.390625 
L 58.015625 25.390625 
L 58.015625 17.1875 
L 47.609375 17.1875 
L 47.609375 0 
L 37.796875 0 
L 37.796875 17.1875 
L 4.890625 17.1875 
L 4.890625 26.703125 
z
" id="DejaVuSans-52"/>
       </defs>
       <use xlink:href="#DejaVuSans-8722"/>
       <use x="83.789062" xlink:href="#DejaVuSans-48"/>
       <use x="147.412109" xlink:href="#DejaVuSans-46"/>
       <use x="179.199219" xlink:href="#DejaVuSans-52"/>
      </g>
     </g>
    </g>
    <g id="ytick_3">
     <g id="line2d_12">
      <g>
       <use style="stroke:#000000;stroke-width:0.8;" x="57.6" xlink:href="#ma9a51d9964" y="215.736147"/>
      </g>
     </g>
     <g id="text_13">
      <!-- −0.2 -->
      <g transform="translate(26.317187 219.535366)scale(0.1 -0.1)">
       <use xlink:href="#DejaVuSans-8722"/>
       <use x="83.789062" xlink:href="#DejaVuSans-48"/>
       <use x="147.412109" xlink:href="#DejaVuSans-46"/>
       <use x="179.199219" xlink:href="#DejaVuSans-50"/>
      </g>
     </g>
    </g>
    <g id="ytick_4">
     <g id="line2d_13">
      <g>
       <use style="stroke:#000000;stroke-width:0.8;" x="57.6" xlink:href="#ma9a51d9964" y="183.995492"/>
      </g>
     </g>
     <g id="text_14">
      <!-- 0.0 -->
      <g transform="translate(34.696875 187.794711)scale(0.1 -0.1)">
       <use xlink:href="#DejaVuSans-48"/>
       <use x="63.623047" xlink:href="#DejaVuSans-46"/>
       <use x="95.410156" xlink:href="#DejaVuSans-48"/>
      </g>
     </g>
    </g>
    <g id="ytick_5">
     <g id="line2d_14">
      <g>
       <use style="stroke:#000000;stroke-width:0.8;" x="57.6" xlink:href="#ma9a51d9964" y="152.254838"/>
      </g>
     </g>
     <g id="text_15">
      <!-- 0.2 -->
      <g transform="translate(34.696875 156.054057)scale(0.1 -0.1)">
       <use xlink:href="#DejaVuSans-48"/>
       <use x="63.623047" xlink:href="#DejaVuSans-46"/>
       <use x="95.410156" xlink:href="#DejaVuSans-50"/>
      </g>
     </g>
    </g>
    <g id="ytick_6">
     <g id="line2d_15">
      <g>
       <use style="stroke:#000000;stroke-width:0.8;" x="57.6" xlink:href="#ma9a51d9964" y="120.514184"/>
      </g>
     </g>
     <g id="text_16">
      <!-- 0.4 -->
      <g transform="translate(34.696875 124.313402)scale(0.1 -0.1)">
       <use xlink:href="#DejaVuSans-48"/>
       <use x="63.623047" xlink:href="#DejaVuSans-46"/>
       <use x="95.410156" xlink:href="#DejaVuSans-52"/>
      </g>
     </g>
    </g>
    <g id="ytick_7">
     <g id="line2d_16">
      <g>
       <use style="stroke:#000000;stroke-width:0.8;" x="57.6" xlink:href="#ma9a51d9964" y="88.773529"/>
      </g>
     </g>
     <g id="text_17">
      <!-- 0.6 -->
      <g transform="translate(34.696875 92.572748)scale(0.1 -0.1)">
       <use xlink:href="#DejaVuSans-48"/>
       <use x="63.623047" xlink:href="#DejaVuSans-46"/>
       <use x="95.410156" xlink:href="#DejaVuSans-54"/>
      </g>
     </g>
    </g>
    <g id="ytick_8">
     <g id="line2d_17">
      <g>
       <use style="stroke:#000000;stroke-width:0.8;" x="57.6" xlink:href="#ma9a51d9964" y="57.032875"/>
      </g>
     </g>
     <g id="text_18">
      <!-- 0.8 -->
      <g transform="translate(34.696875 60.832094)scale(0.1 -0.1)">
       <defs>
        <path d="M 31.78125 34.625 
Q 24.75 34.625 20.71875 30.859375 
Q 16.703125 27.09375 16.703125 20.515625 
Q 16.703125 13.921875 20.71875 10.15625 
Q 24.75 6.390625 31.78125 6.390625 
Q 38.8125 6.390625 42.859375 10.171875 
Q 46.921875 13.96875 46.921875 20.515625 
Q 46.921875 27.09375 42.890625 30.859375 
Q 38.875 34.625 31.78125 34.625 
z
M 21.921875 38.8125 
Q 15.578125 40.375 12.03125 44.71875 
Q 8.5 49.078125 8.5 55.328125 
Q 8.5 64.0625 14.71875 69.140625 
Q 20.953125 74.21875 31.78125 74.21875 
Q 42.671875 74.21875 48.875 69.140625 
Q 55.078125 64.0625 55.078125 55.328125 
Q 55.078125 49.078125 51.53125 44.71875 
Q 48 40.375 41.703125 38.8125 
Q 48.828125 37.15625 52.796875 32.3125 
Q 56.78125 27.484375 56.78125 20.515625 
Q 56.78125 9.90625 50.3125 4.234375 
Q 43.84375 -1.421875 31.78125 -1.421875 
Q 19.734375 -1.421875 13.25 4.234375 
Q 6.78125 9.90625 6.78125 20.515625 
Q 6.78125 27.484375 10.78125 32.3125 
Q 14.796875 37.15625 21.921875 38.8125 
z
M 18.3125 54.390625 
Q 18.3125 48.734375 21.84375 45.5625 
Q 25.390625 42.390625 31.78125 42.390625 
Q 38.140625 42.390625 41.71875 45.5625 
Q 45.3125 48.734375 45.3125 54.390625 
Q 45.3125 60.0625 41.71875 63.234375 
Q 38.140625 66.40625 31.78125 66.40625 
Q 25.390625 66.40625 21.84375 63.234375 
Q 18.3125 60.0625 18.3125 54.390625 
z
" id="DejaVuSans-56"/>
       </defs>
       <use xlink:href="#DejaVuSans-48"/>
       <use x="63.623047" xlink:href="#DejaVuSans-46"/>
       <use x="95.410156" xlink:href="#DejaVuSans-56"/>
      </g>
     </g>
    </g>
    <g id="text_19">
     <!-- $\psi(x)$ -->
     <g transform="translate(20.217188 184.728)rotate(-90)scale(0.1 -0.1)">
      <defs>
       <path d="M 24.859375 -1.21875 
Q 13.921875 0.59375 9.625 5.328125 
Q 4.34375 11.140625 6.640625 23 
L 12.796875 54.6875 
L 21.875 54.6875 
L 15.765625 23.34375 
Q 14.0625 14.40625 17.484375 10.6875 
Q 20.515625 7.46875 26.421875 6.78125 
L 35.6875 54.6875 
L 44.625 54.6875 
L 35.359375 6.84375 
Q 41.890625 7.515625 45.75 10.75 
Q 50.734375 14.84375 52.390625 23.390625 
L 58.453125 54.6875 
L 67.53125 54.6875 
L 61.375 23.046875 
Q 58.984375 10.75 51.5625 5.375 
Q 44.875 0.53125 33.796875 -1.171875 
L 29.984375 -20.796875 
L 21.046875 -20.796875 
z
" id="DejaVuSans-Oblique-968"/>
       <path d="M 31 75.875 
Q 24.46875 64.65625 21.28125 53.65625 
Q 18.109375 42.671875 18.109375 31.390625 
Q 18.109375 20.125 21.3125 9.0625 
Q 24.515625 -2 31 -13.1875 
L 23.1875 -13.1875 
Q 15.875 -1.703125 12.234375 9.375 
Q 8.59375 20.453125 8.59375 31.390625 
Q 8.59375 42.28125 12.203125 53.3125 
Q 15.828125 64.359375 23.1875 75.875 
z
" id="DejaVuSans-40"/>
       <path d="M 8.015625 75.875 
L 15.828125 75.875 
Q 23.140625 64.359375 26.78125 53.3125 
Q 30.421875 42.28125 30.421875 31.390625 
Q 30.421875 20.453125 26.78125 9.375 
Q 23.140625 -1.703125 15.828125 -13.1875 
L 8.015625 -13.1875 
Q 14.5 -2 17.703125 9.0625 
Q 20.90625 20.125 20.90625 31.390625 
Q 20.90625 42.671875 17.703125 53.65625 
Q 14.5 64.65625 8.015625 75.875 
z
" id="DejaVuSans-41"/>
      </defs>
      <use transform="translate(0 0.125)" xlink:href="#DejaVuSans-Oblique-968"/>
      <use transform="translate(65.966797 0.125)" xlink:href="#DejaVuSans-40"/>
      <use transform="translate(104.980469 0.125)" xlink:href="#DejaVuSans-Oblique-120"/>
      <use transform="translate(164.160156 0.125)" xlink:href="#DejaVuSans-41"/>
     </g>
    </g>
   </g>
   <g id="line2d_18">
    <path clip-path="url(#pd4e577b44d)" d="M 57.6 183.995492 
L 179.857297 183.888674 
L 184.861982 183.641543 
L 188.079279 183.275135 
L 190.581622 182.782764 
L 192.726486 182.138831 
L 194.513874 181.385628 
L 196.301261 180.384423 
L 197.731171 179.359835 
L 199.161081 178.087821 
L 200.590991 176.556478 
L 202.020901 174.70356 
L 203.450811 172.457739 
L 204.880721 169.837494 
L 206.310631 166.787852 
L 207.740541 163.216322 
L 209.527928 158.034397 
L 211.315315 152.143829 
L 213.102703 145.383827 
L 214.89009 137.605753 
L 217.74991 124.11694 
L 220.60973 109.52325 
L 223.112072 95.636331 
L 225.614414 81.647561 
L 227.401802 73.159803 
L 228.831712 67.388824 
L 230.261622 62.575693 
L 231.334054 59.61852 
L 232.406486 57.236212 
L 233.478919 55.439779 
L 234.193874 54.571856 
L 234.908829 53.969852 
L 235.623784 53.635004 
L 236.338739 53.568 
L 237.053694 53.768978 
L 237.768649 54.237524 
L 238.483604 54.972676 
L 239.198559 55.972924 
L 240.270991 57.965706 
L 241.343423 60.540991 
L 242.415856 63.686877 
L 243.845766 68.743491 
L 245.275676 74.746823 
L 246.705586 81.647561 
L 248.492973 91.44844 
L 250.995315 105.671152 
L 253.855135 120.582233 
L 256.714955 134.323217 
L 259.217297 145.383827 
L 261.004685 152.143829 
L 262.792072 158.034397 
L 264.579459 163.216322 
L 266.009369 166.787852 
L 267.439279 169.837494 
L 268.869189 172.457739 
L 270.299099 174.70356 
L 271.729009 176.556478 
L 273.158919 178.087821 
L 274.946306 179.637916 
L 276.733694 180.817559 
L 278.521081 181.715687 
L 280.308468 182.380041 
L 282.453333 182.948354 
L 284.955676 183.377973 
L 288.172973 183.695118 
L 292.82018 183.897823 
L 301.042162 183.984885 
L 342.867027 183.995492 
L 414.72 183.995492 
L 414.72 183.995492 
" style="fill:none;stroke:#1f77b4;stroke-linecap:square;stroke-width:1.5;"/>
   </g>
   <g id="line2d_19">
    <path clip-path="url(#pd4e577b44d)" d="M 57.6 183.995492 
L 179.49982 183.890295 
L 184.504505 183.645533 
L 187.721802 183.280769 
L 190.224144 182.788882 
L 192.369009 182.146604 
L 194.156396 181.397741 
L 195.943784 180.396897 
L 197.373694 179.372403 
L 198.803604 178.109845 
L 200.233514 176.570109 
L 201.663423 174.712114 
L 203.093333 172.493962 
L 204.523243 169.874427 
L 205.953153 166.814768 
L 207.383063 163.280846 
L 208.812973 159.245474 
L 210.60036 153.470189 
L 212.387748 146.876949 
L 214.175135 139.49466 
L 216.32 129.698264 
L 219.17982 115.414262 
L 225.971892 80.730654 
L 227.759279 72.833281 
L 229.189189 67.27971 
L 230.619099 62.555152 
L 231.691532 59.629104 
L 232.763964 57.280688 
L 233.836396 55.544943 
L 234.551351 54.741466 
L 235.266306 54.227547 
L 235.981261 54.006671 
L 236.696216 54.080339 
L 237.411171 54.448048 
L 238.126126 55.107304 
L 238.841081 56.053644 
L 239.913514 57.996974 
L 240.985946 60.542241 
L 242.058378 63.65164 
L 243.488288 68.595504 
L 244.918198 74.3354 
L 246.705586 82.414378 
L 249.207928 94.882016 
L 256.357477 131.394799 
L 258.502342 141.031464 
L 260.647207 149.611446 
L 262.434595 155.878775 
L 264.221982 161.327201 
L 266.009369 165.97695 
L 267.439279 169.152203 
L 268.869189 171.878279 
L 270.299099 174.192975 
L 271.729009 176.13708 
L 273.158919 177.752475 
L 274.588829 179.080568 
L 276.376216 180.396897 
L 278.163604 181.397741 
L 279.950991 182.146604 
L 282.095856 182.788882 
L 284.598198 183.280769 
L 287.458018 183.615776 
L 291.39027 183.8455 
L 297.824865 183.967193 
L 316.413694 183.995411 
L 414.72 183.995492 
L 414.72 183.995492 
" style="fill:none;stroke:#808080;stroke-dasharray:1.85,0.8;stroke-dashoffset:0;stroke-width:0.5;"/>
   </g>
   <g id="line2d_20">
    <path clip-path="url(#pd4e577b44d)" d="M 57.6 183.995492 
L 173.065225 183.885531 
L 177.712432 183.639216 
L 180.572252 183.296796 
L 183.074595 182.775524 
L 185.219459 182.074767 
L 187.006847 181.241551 
L 188.794234 180.105417 
L 190.224144 178.926031 
L 191.654054 177.44087 
L 193.083964 175.622457 
L 194.513874 173.383878 
L 195.943784 170.703424 
L 197.373694 167.527607 
L 198.803604 163.753498 
L 200.233514 159.442648 
L 201.663423 154.533193 
L 203.093333 148.905439 
L 205.238198 139.448084 
L 207.383063 128.834806 
L 215.247568 87.625148 
L 216.32 83.150354 
L 217.392432 79.477351 
L 218.464865 76.635341 
L 219.17982 75.213767 
L 219.894775 74.17673 
L 220.60973 73.527898 
L 221.324685 73.269563 
L 222.03964 73.402639 
L 222.754595 73.926654 
L 223.46955 74.839758 
L 224.184505 76.225739 
L 224.899459 78.338013 
L 225.614414 81.162345 
L 226.686847 86.691031 
L 227.759279 93.69415 
L 228.831712 102.065586 
L 230.261622 115.133993 
L 232.049009 134.029432 
L 234.193874 159.397403 
L 240.628468 237.935399 
L 242.415856 256.312498 
L 243.845766 268.860489 
L 244.918198 276.788927 
L 245.990631 283.311286 
L 247.063063 288.328735 
L 247.778018 290.799119 
L 248.492973 292.549722 
L 249.207928 293.656245 
L 249.922883 294.375123 
L 250.637838 294.703814 
L 251.352793 294.641156 
L 252.067748 294.187372 
L 252.782703 293.344065 
L 253.497658 292.114216 
L 254.212613 290.502173 
L 255.285045 287.380324 
L 256.357477 283.436492 
L 257.42991 278.702034 
L 259.574775 267.732573 
L 264.579459 241.056275 
L 266.724324 230.224478 
L 268.869189 220.592239 
L 270.656577 213.457792 
L 272.443964 207.418839 
L 274.231351 202.273198 
L 275.661261 198.806632 
L 277.091171 195.892043 
L 278.521081 193.428831 
L 279.950991 191.41294 
L 281.380901 189.769262 
L 282.810811 188.440329 
L 284.240721 187.391951 
L 286.028108 186.38302 
L 287.815495 185.651637 
L 289.96036 185.039531 
L 292.462703 184.588185 
L 295.68 184.269547 
L 300.327207 184.078111 
L 308.906667 184.002423 
L 366.818018 183.995492 
L 414.72 183.995492 
L 414.72 183.995492 
" style="fill:none;stroke:#ff7f0e;stroke-linecap:square;stroke-width:1.5;"/>
   </g>
   <g id="line2d_21">
    <path clip-path="url(#pd4e577b44d)" d="M 57.6 183.995492 
L 172.707748 183.892536 
L 177.354955 183.659188 
L 180.572252 183.276511 
L 183.074595 182.740619 
L 184.861982 182.161459 
L 186.649369 181.355901 
L 188.079279 180.502431 
L 189.509189 179.418766 
L 190.939099 178.058606 
L 192.369009 176.371344 
L 193.798919 174.303264 
L 195.228829 171.799317 
L 196.658739 168.805553 
L 198.088649 165.272228 
L 199.518559 161.157577 
L 200.948468 156.432158 
L 202.735856 149.649725 
L 204.523243 141.921096 
L 206.668108 131.536276 
L 209.527928 116.36679 
L 213.46018 95.359578 
L 215.247568 86.926148 
L 216.677477 81.202441 
L 217.74991 77.69865 
L 218.822342 75.005883 
L 219.537297 73.718343 
L 220.252252 72.874258 
L 220.967207 72.502985 
L 221.324685 72.503054 
L 221.682162 72.631007 
L 222.397117 73.281481 
L 223.112072 74.473811 
L 223.827027 76.223247 
L 224.541982 78.540534 
L 225.614414 83.092773 
L 226.686847 88.933233 
L 227.759279 96.03337 
L 229.189189 107.35887 
L 230.619099 120.613184 
L 232.406486 139.447386 
L 234.908829 168.72784 
L 239.913514 228.543599 
L 241.700901 247.377801 
L 243.130811 260.632115 
L 244.560721 271.957615 
L 245.633153 279.057752 
L 246.705586 284.898212 
L 247.778018 289.450451 
L 248.492973 291.767738 
L 249.207928 293.517174 
L 249.922883 294.709504 
L 250.637838 295.359978 
L 250.995315 295.487931 
L 251.352793 295.488 
L 251.71027 295.363193 
L 252.425225 294.752013 
L 253.14018 293.68237 
L 253.855135 292.184882 
L 254.927568 289.208635 
L 256 285.461191 
L 257.42991 279.476611 
L 259.217297 270.819366 
L 262.077117 255.527927 
L 266.009369 234.650315 
L 268.154234 224.4519 
L 269.941622 216.907354 
L 271.729009 210.319199 
L 273.516396 204.701233 
L 274.946306 200.881804 
L 276.376216 197.624074 
L 277.806126 194.88178 
L 279.236036 192.602644 
L 280.665946 190.73182 
L 282.095856 189.214664 
L 283.525766 187.998829 
L 284.955676 187.035748 
L 286.743063 186.120999 
L 288.53045 185.458753 
L 290.675315 184.91165 
L 293.177658 184.511537 
L 296.394955 184.231677 
L 301.042162 184.065578 
L 310.694054 183.999568 
L 404.710631 183.995492 
L 414.72 183.995492 
L 414.72 183.995492 
" style="fill:none;stroke:#808080;stroke-dasharray:1.85,0.8;stroke-dashoffset:0;stroke-width:0.5;"/>
   </g>
   <g id="line2d_22">
    <path clip-path="url(#pd4e577b44d)" d="M 57.6 183.995492 
L 167.345586 183.891599 
L 171.992793 183.641527 
L 174.852613 183.282778 
L 176.997477 182.82051 
L 178.784865 182.24399 
L 180.572252 181.431315 
L 182.002162 180.553278 
L 183.432072 179.430417 
L 184.861982 177.998725 
L 186.291892 176.218136 
L 187.721802 173.997674 
L 189.151712 171.3105 
L 190.581622 168.057587 
L 192.011532 164.178195 
L 193.441441 159.670649 
L 194.871351 154.414681 
L 196.658739 146.96963 
L 198.446126 138.434768 
L 201.305946 123.319458 
L 206.668108 94.152966 
L 208.455495 86.121126 
L 209.527928 82.460222 
L 210.242883 80.641667 
L 210.957838 79.331547 
L 211.672793 78.536307 
L 212.03027 78.333089 
L 212.387748 78.259859 
L 212.745225 78.316707 
L 213.102703 78.503563 
L 213.817658 79.26622 
L 214.532613 80.544077 
L 215.247568 82.578797 
L 215.962523 85.43734 
L 216.677477 89.096487 
L 217.74991 96.019597 
L 218.822342 104.54929 
L 220.252252 118.148241 
L 221.682162 133.882397 
L 223.827027 160.356168 
L 229.546667 233.749156 
L 230.976577 248.468866 
L 232.049009 257.628958 
L 233.121441 264.914882 
L 233.836396 268.637267 
L 234.551351 271.401028 
L 235.266306 273.174864 
L 235.623784 273.683836 
L 235.981261 273.938683 
L 236.338739 273.938683 
L 236.696216 273.683836 
L 237.053694 273.174864 
L 237.768649 271.401028 
L 238.483604 268.637267 
L 239.198559 264.914882 
L 240.270991 257.628958 
L 241.343423 248.468866 
L 242.773333 233.749156 
L 244.560721 212.276914 
L 248.135495 165.00913 
L 250.637838 133.882397 
L 252.425225 114.529801 
L 253.855135 101.53659 
L 254.927568 93.526513 
L 256 87.168546 
L 256.714955 83.906387 
L 257.42991 81.457267 
L 258.144865 79.841082 
L 258.85982 78.820197 
L 259.574775 78.316707 
L 259.932252 78.259859 
L 260.28973 78.333089 
L 260.647207 78.536307 
L 261.362162 79.331547 
L 262.077117 80.641667 
L 262.792072 82.460222 
L 263.507027 84.778265 
L 264.579459 89.166269 
L 266.366847 97.671159 
L 268.511712 109.088259 
L 273.158919 134.771714 
L 275.303784 145.357375 
L 277.091171 153.001929 
L 278.878559 159.670649 
L 280.308468 164.178195 
L 281.738378 168.057587 
L 283.168288 171.3105 
L 284.598198 173.997674 
L 286.028108 176.218136 
L 287.458018 177.998725 
L 288.887928 179.430417 
L 290.317838 180.553278 
L 291.747748 181.431315 
L 293.535135 182.24399 
L 295.322523 182.82051 
L 297.467387 183.282778 
L 300.327207 183.641527 
L 304.259459 183.869158 
L 310.694054 183.975591 
L 333.215135 183.995486 
L 414.72 183.995492 
L 414.72 183.995492 
" style="fill:none;stroke:#2ca02c;stroke-linecap:square;stroke-width:1.5;"/>
   </g>
   <g id="line2d_23">
    <path clip-path="url(#pd4e577b44d)" d="M 57.6 183.995492 
L 167.345586 183.891883 
L 171.992793 183.642167 
L 174.852613 183.282695 
L 176.997477 182.820912 
L 178.784865 182.245946 
L 180.572252 181.431697 
L 182.002162 180.55593 
L 183.432072 179.4298 
L 184.861982 177.999632 
L 186.291892 176.206318 
L 187.721802 173.986848 
L 189.151712 171.276682 
L 190.581622 168.013082 
L 192.011532 164.139451 
L 193.441441 159.610692 
L 194.871351 154.399454 
L 196.658739 146.924521 
L 198.446126 138.448175 
L 200.590991 127.196083 
L 206.668108 94.30921 
L 208.098018 88.0498 
L 209.17045 84.194615 
L 210.242883 81.239505 
L 210.957838 79.847927 
L 211.672793 78.971486 
L 212.03027 78.739638 
L 212.387748 78.651988 
L 212.745225 78.713193 
L 213.102703 78.927631 
L 213.46018 79.299378 
L 214.175135 80.529442 
L 214.89009 82.429012 
L 215.605045 85.017331 
L 216.32 88.306562 
L 217.392432 94.562106 
L 218.464865 102.382503 
L 219.537297 111.702713 
L 220.967207 126.26331 
L 222.754595 147.316756 
L 225.256937 180.131438 
L 228.474234 222.372289 
L 230.261622 242.828901 
L 231.691532 256.362621 
L 232.763964 264.434791 
L 233.836396 270.480321 
L 234.551351 273.301324 
L 235.266306 275.113104 
L 235.623784 275.63314 
L 235.981261 275.893556 
L 236.338739 275.893556 
L 236.696216 275.63314 
L 237.053694 275.113104 
L 237.768649 273.301324 
L 238.483604 270.480321 
L 239.198559 266.68441 
L 240.270991 259.26614 
L 241.343423 249.960474 
L 242.773333 235.051418 
L 244.560721 213.384186 
L 248.135495 165.77705 
L 250.28036 138.569437 
L 252.067748 118.69629 
L 253.497658 105.327136 
L 254.57009 96.997301 
L 255.642523 90.215726 
L 256.714955 85.017331 
L 257.42991 82.429012 
L 258.144865 80.529442 
L 258.85982 79.299378 
L 259.574775 78.713193 
L 259.932252 78.651988 
L 260.28973 78.739638 
L 260.647207 78.971486 
L 261.362162 79.847927 
L 262.077117 81.239505 
L 262.792072 83.101615 
L 263.864505 86.674734 
L 264.936937 91.039705 
L 266.366847 97.810943 
L 268.511712 109.258812 
L 273.516396 136.645366 
L 275.661261 146.924521 
L 277.448649 154.399454 
L 279.236036 160.806162 
L 280.665946 165.167768 
L 282.095856 168.884113 
L 283.525766 172.003725 
L 284.955676 174.585199 
L 286.385586 176.69209 
L 287.815495 178.388829 
L 289.245405 179.737638 
L 290.675315 180.79638 
L 292.105225 181.617219 
L 293.892613 182.377853 
L 296.037477 182.99849 
L 298.53982 183.445007 
L 301.757117 183.750494 
L 306.404324 183.925955 
L 315.698739 183.9914 
L 406.498018 183.995492 
L 414.72 183.995492 
L 414.72 183.995492 
" style="fill:none;stroke:#808080;stroke-dasharray:1.85,0.8;stroke-dashoffset:0;stroke-width:0.5;"/>
   </g>
   <g id="patch_3">
    <path d="M 57.6 307.584 
L 57.6 41.472 
" style="fill:none;stroke:#000000;stroke-linecap:square;stroke-linejoin:miter;stroke-width:0.8;"/>
   </g>
   <g id="patch_4">
    <path d="M 414.72 307.584 
L 414.72 41.472 
" style="fill:none;stroke:#000000;stroke-linecap:square;stroke-linejoin:miter;stroke-width:0.8;"/>
   </g>
   <g id="patch_5">
    <path d="M 57.6 307.584 
L 414.72 307.584 
" style="fill:none;stroke:#000000;stroke-linecap:square;stroke-linejoin:miter;stroke-width:0.8;"/>
   </g>
   <g id="patch_6">
    <path d="M 57.6 41.472 
L 414.72 41.472 
" style="fill:none;stroke:#000000;stroke-linecap:square;stroke-linejoin:miter;stroke-width:0.8;"/>
   </g>
  </g>
  <g id="axes_2">
   <g id="matplotlib.axis_3">
    <g id="ytick_9">
     <g id="line2d_24">
      <defs>
       <path d="M 0 0 
L 3.5 0 
" id="m3c2f9f1ae5" style="stroke:#000000;stroke-width:0.8;"/>
      </defs>
      <g>
       <use style="stroke:#000000;stroke-width:0.8;" x="414.72" xlink:href="#m3c2f9f1ae5" y="295.488242"/>
      </g>
     </g>
     <g id="text_20">
      <!-- 0 -->
      <g transform="translate(421.72 299.287461)scale(0.1 -0.1)">
       <use xlink:href="#DejaVuSans-48"/>
      </g>
     </g>
    </g>
    <g id="ytick_10">
     <g id="line2d_25">
      <g>
       <use style="stroke:#000000;stroke-width:0.8;" x="414.72" xlink:href="#m3c2f9f1ae5" y="247.104194"/>
      </g>
     </g>
     <g id="text_21">
      <!-- 20 -->
      <g transform="translate(421.72 250.903413)scale(0.1 -0.1)">
       <use xlink:href="#DejaVuSans-50"/>
       <use x="63.623047" xlink:href="#DejaVuSans-48"/>
      </g>
     </g>
    </g>
    <g id="ytick_11">
     <g id="line2d_26">
      <g>
       <use style="stroke:#000000;stroke-width:0.8;" x="414.72" xlink:href="#m3c2f9f1ae5" y="198.720145"/>
      </g>
     </g>
     <g id="text_22">
      <!-- 40 -->
      <g transform="translate(421.72 202.519364)scale(0.1 -0.1)">
       <use xlink:href="#DejaVuSans-52"/>
       <use x="63.623047" xlink:href="#DejaVuSans-48"/>
      </g>
     </g>
    </g>
    <g id="ytick_12">
     <g id="line2d_27">
      <g>
       <use style="stroke:#000000;stroke-width:0.8;" x="414.72" xlink:href="#m3c2f9f1ae5" y="150.336097"/>
      </g>
     </g>
     <g id="text_23">
      <!-- 60 -->
      <g transform="translate(421.72 154.135316)scale(0.1 -0.1)">
       <use xlink:href="#DejaVuSans-54"/>
       <use x="63.623047" xlink:href="#DejaVuSans-48"/>
      </g>
     </g>
    </g>
    <g id="ytick_13">
     <g id="line2d_28">
      <g>
       <use style="stroke:#000000;stroke-width:0.8;" x="414.72" xlink:href="#m3c2f9f1ae5" y="101.952048"/>
      </g>
     </g>
     <g id="text_24">
      <!-- 80 -->
      <g transform="translate(421.72 105.751267)scale(0.1 -0.1)">
       <use xlink:href="#DejaVuSans-56"/>
       <use x="63.623047" xlink:href="#DejaVuSans-48"/>
      </g>
     </g>
    </g>
    <g id="ytick_14">
     <g id="line2d_29">
      <g>
       <use style="stroke:#000000;stroke-width:0.8;" x="414.72" xlink:href="#m3c2f9f1ae5" y="53.568"/>
      </g>
     </g>
     <g id="text_25">
      <!-- 100 -->
      <g transform="translate(421.72 57.367219)scale(0.1 -0.1)">
       <use xlink:href="#DejaVuSans-49"/>
       <use x="63.623047" xlink:href="#DejaVuSans-48"/>
       <use x="127.246094" xlink:href="#DejaVuSans-48"/>
      </g>
     </g>
    </g>
    <g id="text_26">
     <!-- $V(x)$ -->
     <g transform="translate(452.405937 184.828)rotate(-90)scale(0.1 -0.1)">
      <defs>
       <path d="M 20.609375 0 
L 7.8125 72.90625 
L 17.484375 72.90625 
L 28.078125 10.203125 
L 63.484375 72.90625 
L 74.21875 72.90625 
L 32.078125 0 
z
" id="DejaVuSans-Oblique-86"/>
      </defs>
      <use transform="translate(0 0.125)" xlink:href="#DejaVuSans-Oblique-86"/>
      <use transform="translate(68.408203 0.125)" xlink:href="#DejaVuSans-40"/>
      <use transform="translate(107.421875 0.125)" xlink:href="#DejaVuSans-Oblique-120"/>
      <use transform="translate(166.601562 0.125)" xlink:href="#DejaVuSans-41"/>
     </g>
    </g>
   </g>
   <g id="line2d_30">
    <path clip-path="url(#pd4e577b44d)" d="M 57.6 53.568 
L 58.672432 53.568 
L 59.02991 55.987202 
L 59.744865 55.987202 
L 60.102342 58.406405 
L 60.45982 58.406405 
L 60.817297 60.825607 
L 61.532252 60.825607 
L 61.88973 63.24481 
L 62.247207 63.24481 
L 62.604685 65.664012 
L 63.31964 65.664012 
L 63.677117 68.083215 
L 64.392072 68.083215 
L 64.74955 70.502417 
L 65.107027 70.502417 
L 65.464505 72.921619 
L 66.179459 72.921619 
L 66.536937 75.340822 
L 66.894414 75.340822 
L 67.251892 77.760024 
L 67.966847 77.760024 
L 68.324324 80.179227 
L 69.039279 80.179227 
L 69.396757 82.598429 
L 69.754234 82.598429 
L 70.111712 85.017632 
L 70.826667 85.017632 
L 71.184144 87.436834 
L 71.899099 87.436834 
L 72.256577 89.856036 
L 72.971532 89.856036 
L 73.329009 92.275239 
L 73.686486 92.275239 
L 74.043964 94.694441 
L 74.758919 94.694441 
L 75.116396 97.113644 
L 75.831351 97.113644 
L 76.188829 99.532846 
L 76.903784 99.532846 
L 77.261261 101.952048 
L 77.618739 101.952048 
L 77.976216 104.371251 
L 78.691171 104.371251 
L 79.048649 106.790453 
L 79.763604 106.790453 
L 80.121081 109.209656 
L 80.836036 109.209656 
L 81.193514 111.628858 
L 81.908468 111.628858 
L 82.265946 114.048061 
L 82.980901 114.048061 
L 83.338378 116.467263 
L 84.053333 116.467263 
L 84.410811 118.886465 
L 85.125766 118.886465 
L 85.483243 121.305668 
L 86.198198 121.305668 
L 86.555676 123.72487 
L 87.270631 123.72487 
L 87.628108 126.144073 
L 88.343063 126.144073 
L 88.700541 128.563275 
L 89.415495 128.563275 
L 89.772973 130.982478 
L 90.487928 130.982478 
L 90.845405 133.40168 
L 91.56036 133.40168 
L 91.917838 135.820882 
L 92.632793 135.820882 
L 92.99027 138.240085 
L 93.705225 138.240085 
L 94.062703 140.659287 
L 94.777658 140.659287 
L 95.135135 143.07849 
L 95.85009 143.07849 
L 96.207568 145.497692 
L 96.922523 145.497692 
L 97.28 147.916895 
L 98.352432 147.916895 
L 98.70991 150.336097 
L 99.424865 150.336097 
L 99.782342 152.755299 
L 100.497297 152.755299 
L 100.854775 155.174502 
L 101.927207 155.174502 
L 102.284685 157.593704 
L 102.99964 157.593704 
L 103.357117 160.012907 
L 104.072072 160.012907 
L 104.42955 162.432109 
L 105.501982 162.432109 
L 105.859459 164.851312 
L 106.574414 164.851312 
L 106.931892 167.270514 
L 108.004324 167.270514 
L 108.361802 169.689716 
L 109.076757 169.689716 
L 109.434234 172.108919 
L 110.506667 172.108919 
L 110.864144 174.528121 
L 111.579099 174.528121 
L 111.936577 176.947324 
L 113.009009 176.947324 
L 113.366486 179.366526 
L 114.081441 179.366526 
L 114.438919 181.785728 
L 115.511351 181.785728 
L 115.868829 184.204931 
L 116.941261 184.204931 
L 117.298739 186.624133 
L 118.371171 186.624133 
L 118.728649 189.043336 
L 119.443604 189.043336 
L 119.801081 191.462538 
L 120.873514 191.462538 
L 121.230991 193.881741 
L 122.303423 193.881741 
L 122.660901 196.300943 
L 123.733333 196.300943 
L 124.090811 198.720145 
L 125.163243 198.720145 
L 125.520721 201.139348 
L 126.593153 201.139348 
L 126.950631 203.55855 
L 128.023063 203.55855 
L 128.380541 205.977753 
L 129.452973 205.977753 
L 129.81045 208.396955 
L 131.24036 208.396955 
L 131.597838 210.816158 
L 132.67027 210.816158 
L 133.027748 213.23536 
L 134.10018 213.23536 
L 134.457658 215.654562 
L 135.887568 215.654562 
L 136.245045 218.073765 
L 137.317477 218.073765 
L 137.674955 220.492967 
L 139.104865 220.492967 
L 139.462342 222.91217 
L 140.534775 222.91217 
L 140.892252 225.331372 
L 142.322162 225.331372 
L 142.67964 227.750575 
L 144.10955 227.750575 
L 144.467027 230.169777 
L 145.896937 230.169777 
L 146.254414 232.588979 
L 147.684324 232.588979 
L 148.041802 235.008182 
L 149.471712 235.008182 
L 149.829189 237.427384 
L 151.259099 237.427384 
L 151.616577 239.846587 
L 153.046486 239.846587 
L 153.403964 242.265789 
L 155.191351 242.265789 
L 155.548829 244.684991 
L 156.978739 244.684991 
L 157.336216 247.104194 
L 159.123604 247.104194 
L 159.481081 249.523396 
L 161.268468 249.523396 
L 161.625946 251.942599 
L 163.413333 251.942599 
L 163.770811 254.361801 
L 165.558198 254.361801 
L 165.915676 256.781004 
L 168.060541 256.781004 
L 168.418018 259.200206 
L 170.205405 259.200206 
L 170.562883 261.619408 
L 172.707748 261.619408 
L 173.065225 264.038611 
L 175.567568 264.038611 
L 175.925045 266.457813 
L 178.06991 266.457813 
L 178.427387 268.877016 
L 180.92973 268.877016 
L 181.287207 271.296218 
L 183.78955 271.296218 
L 184.147027 273.715421 
L 187.006847 273.715421 
L 187.364324 276.134623 
L 190.581622 276.134623 
L 190.939099 278.553825 
L 194.156396 278.553825 
L 194.513874 280.973028 
L 198.088649 280.973028 
L 198.446126 283.39223 
L 202.735856 283.39223 
L 203.093333 285.811433 
L 207.740541 285.811433 
L 208.098018 288.230635 
L 214.175135 288.230635 
L 214.532613 290.649838 
L 223.46955 290.649838 
L 223.827027 293.06904 
L 248.492973 293.06904 
L 248.85045 290.649838 
L 257.787387 290.649838 
L 258.144865 288.230635 
L 264.221982 288.230635 
L 264.579459 285.811433 
L 269.226667 285.811433 
L 269.584144 283.39223 
L 273.873874 283.39223 
L 274.231351 280.973028 
L 277.806126 280.973028 
L 278.163604 278.553825 
L 281.380901 278.553825 
L 281.738378 276.134623 
L 284.955676 276.134623 
L 285.313153 273.715421 
L 288.172973 273.715421 
L 288.53045 271.296218 
L 291.032793 271.296218 
L 291.39027 268.877016 
L 293.892613 268.877016 
L 294.25009 266.457813 
L 296.394955 266.457813 
L 296.752432 264.038611 
L 299.254775 264.038611 
L 299.612252 261.619408 
L 301.757117 261.619408 
L 302.114595 259.200206 
L 303.901982 259.200206 
L 304.259459 256.781004 
L 306.404324 256.781004 
L 306.761802 254.361801 
L 308.549189 254.361801 
L 308.906667 251.942599 
L 310.694054 251.942599 
L 311.051532 249.523396 
L 312.838919 249.523396 
L 313.196396 247.104194 
L 314.983784 247.104194 
L 315.341261 244.684991 
L 316.771171 244.684991 
L 317.128649 242.265789 
L 318.916036 242.265789 
L 319.273514 239.846587 
L 320.703423 239.846587 
L 321.060901 237.427384 
L 322.490811 237.427384 
L 322.848288 235.008182 
L 324.278198 235.008182 
L 324.635676 232.588979 
L 326.065586 232.588979 
L 326.423063 230.169777 
L 327.852973 230.169777 
L 328.21045 227.750575 
L 329.64036 227.750575 
L 329.997838 225.331372 
L 331.427748 225.331372 
L 331.785225 222.91217 
L 332.857658 222.91217 
L 333.215135 220.492967 
L 334.645045 220.492967 
L 335.002523 218.073765 
L 336.074955 218.073765 
L 336.432432 215.654562 
L 337.862342 215.654562 
L 338.21982 213.23536 
L 339.292252 213.23536 
L 339.64973 210.816158 
L 340.722162 210.816158 
L 341.07964 208.396955 
L 342.50955 208.396955 
L 342.867027 205.977753 
L 343.939459 205.977753 
L 344.296937 203.55855 
L 345.369369 203.55855 
L 345.726847 201.139348 
L 346.799279 201.139348 
L 347.156757 198.720145 
L 348.229189 198.720145 
L 348.586667 196.300943 
L 349.659099 196.300943 
L 350.016577 193.881741 
L 351.089009 193.881741 
L 351.446486 191.462538 
L 352.518919 191.462538 
L 352.876396 189.043336 
L 353.591351 189.043336 
L 353.948829 186.624133 
L 355.021261 186.624133 
L 355.378739 184.204931 
L 356.451171 184.204931 
L 356.808649 181.785728 
L 357.881081 181.785728 
L 358.238559 179.366526 
L 358.953514 179.366526 
L 359.310991 176.947324 
L 360.383423 176.947324 
L 360.740901 174.528121 
L 361.455856 174.528121 
L 361.813333 172.108919 
L 362.885766 172.108919 
L 363.243243 169.689716 
L 363.958198 169.689716 
L 364.315676 167.270514 
L 365.388108 167.270514 
L 365.745586 164.851312 
L 366.460541 164.851312 
L 366.818018 162.432109 
L 367.89045 162.432109 
L 368.247928 160.012907 
L 368.962883 160.012907 
L 369.32036 157.593704 
L 370.035315 157.593704 
L 370.392793 155.174502 
L 371.465225 155.174502 
L 371.822703 152.755299 
L 372.537658 152.755299 
L 372.895135 150.336097 
L 373.61009 150.336097 
L 373.967568 147.916895 
L 375.04 147.916895 
L 375.397477 145.497692 
L 376.112432 145.497692 
L 376.46991 143.07849 
L 377.184865 143.07849 
L 377.542342 140.659287 
L 378.257297 140.659287 
L 378.614775 138.240085 
L 379.32973 138.240085 
L 379.687207 135.820882 
L 380.402162 135.820882 
L 380.75964 133.40168 
L 381.474595 133.40168 
L 381.832072 130.982478 
L 382.547027 130.982478 
L 382.904505 128.563275 
L 383.619459 128.563275 
L 383.976937 126.144073 
L 384.691892 126.144073 
L 385.049369 123.72487 
L 385.764324 123.72487 
L 386.121802 121.305668 
L 386.836757 121.305668 
L 387.194234 118.886465 
L 387.909189 118.886465 
L 388.266667 116.467263 
L 388.981622 116.467263 
L 389.339099 114.048061 
L 390.054054 114.048061 
L 390.411532 111.628858 
L 391.126486 111.628858 
L 391.483964 109.209656 
L 392.198919 109.209656 
L 392.556396 106.790453 
L 393.271351 106.790453 
L 393.628829 104.371251 
L 394.343784 104.371251 
L 394.701261 101.952048 
L 395.058739 101.952048 
L 395.416216 99.532846 
L 396.131171 99.532846 
L 396.488649 97.113644 
L 397.203604 97.113644 
L 397.561081 94.694441 
L 398.276036 94.694441 
L 398.633514 92.275239 
L 398.990991 92.275239 
L 399.348468 89.856036 
L 400.063423 89.856036 
L 400.420901 87.436834 
L 401.135856 87.436834 
L 401.493333 85.017632 
L 402.208288 85.017632 
L 402.565766 82.598429 
L 402.923243 82.598429 
L 403.280721 80.179227 
L 403.995676 80.179227 
L 404.353153 77.760024 
L 405.068108 77.760024 
L 405.425586 75.340822 
L 405.783063 75.340822 
L 406.140541 72.921619 
L 406.855495 72.921619 
L 407.212973 70.502417 
L 407.57045 70.502417 
L 407.927928 68.083215 
L 408.642883 68.083215 
L 409.00036 65.664012 
L 409.715315 65.664012 
L 410.072793 63.24481 
L 410.43027 63.24481 
L 410.787748 60.825607 
L 411.502703 60.825607 
L 411.86018 58.406405 
L 412.217658 58.406405 
L 412.575135 55.987202 
L 413.29009 55.987202 
L 413.647568 53.568 
L 414.72 53.568 
L 414.72 53.568 
" style="fill:none;stroke:#0000ff;stroke-linecap:square;stroke-width:1.5;"/>
   </g>
   <g id="line2d_31">
    <path clip-path="url(#pd4e577b44d)" d="M 57.6 53.568 
L 64.034595 70.689537 
L 70.469189 87.18276 
L 76.903784 103.04767 
L 82.980901 117.454272 
L 89.058018 131.300435 
L 95.135135 144.586158 
L 100.854775 156.578409 
L 106.574414 168.074214 
L 112.294054 179.073575 
L 118.013694 189.576491 
L 123.375856 198.972101 
L 128.738018 207.931383 
L 134.10018 216.454336 
L 139.462342 224.54096 
L 144.467027 231.694811 
L 149.471712 238.468571 
L 154.476396 244.86224 
L 159.481081 250.875819 
L 164.128288 256.11952 
L 168.775495 261.035489 
L 173.422703 265.623727 
L 178.06991 269.884234 
L 182.35964 273.526124 
L 186.649369 276.888764 
L 190.939099 279.972153 
L 195.228829 282.776292 
L 199.518559 285.30118 
L 203.450811 287.370348 
L 207.383063 289.204867 
L 211.315315 290.804739 
L 215.247568 292.169963 
L 219.17982 293.300539 
L 223.112072 294.196467 
L 227.044324 294.857747 
L 230.976577 295.28438 
L 234.908829 295.476365 
L 238.841081 295.433701 
L 242.773333 295.15639 
L 246.705586 294.644431 
L 250.637838 293.897824 
L 254.57009 292.91657 
L 258.502342 291.700667 
L 262.434595 290.250117 
L 266.366847 288.564919 
L 270.299099 286.645073 
L 274.231351 284.490579 
L 278.521081 281.872607 
L 282.810811 278.975384 
L 287.100541 275.798912 
L 291.39027 272.343189 
L 295.68 268.608215 
L 299.96973 264.593992 
L 304.616937 259.930123 
L 309.264144 254.938523 
L 313.911351 249.619192 
L 318.558559 243.97213 
L 323.563243 237.524162 
L 328.567928 230.696103 
L 333.572613 223.487954 
L 338.577297 215.899714 
L 343.939459 207.347672 
L 349.301622 198.359302 
L 354.663784 188.934603 
L 360.025946 179.073575 
L 365.745586 168.074214 
L 371.465225 156.578409 
L 377.184865 144.586158 
L 382.904505 132.097462 
L 388.981622 118.284266 
L 395.058739 103.910631 
L 401.135856 88.976555 
L 407.57045 72.553145 
L 414.005045 55.501421 
L 414.72 53.568 
L 414.72 53.568 
" style="fill:none;stroke:#808080;stroke-dasharray:1.85,0.8;stroke-dashoffset:0;stroke-width:0.5;"/>
   </g>
   <g id="patch_7">
    <path d="M 57.6 307.584 
L 57.6 41.472 
" style="fill:none;stroke:#000000;stroke-linecap:square;stroke-linejoin:miter;stroke-width:0.8;"/>
   </g>
   <g id="patch_8">
    <path d="M 414.72 307.584 
L 414.72 41.472 
" style="fill:none;stroke:#000000;stroke-linecap:square;stroke-linejoin:miter;stroke-width:0.8;"/>
   </g>
   <g id="patch_9">
    <path d="M 57.6 307.584 
L 414.72 307.584 
" style="fill:none;stroke:#000000;stroke-linecap:square;stroke-linejoin:miter;stroke-width:0.8;"/>
   </g>
   <g id="patch_10">
    <path d="M 57.6 41.472 
L 414.72 41.472 
" style="fill:none;stroke:#000000;stroke-linecap:square;stroke-linejoin:miter;stroke-width:0.8;"/>
   </g>
   <g id="text_27">
    <!-- Solution to harmonic oscillator -->
    <g transform="translate(144.585 35.472)scale(0.12 -0.12)">
     <defs>
      <path d="M 53.515625 70.515625 
L 53.515625 60.890625 
Q 47.90625 63.578125 42.921875 64.890625 
Q 37.9375 66.21875 33.296875 66.21875 
Q 25.25 66.21875 20.875 63.09375 
Q 16.5 59.96875 16.5 54.203125 
Q 16.5 49.359375 19.40625 46.890625 
Q 22.3125 44.4375 30.421875 42.921875 
L 36.375 41.703125 
Q 47.40625 39.59375 52.65625 34.296875 
Q 57.90625 29 57.90625 20.125 
Q 57.90625 9.515625 50.796875 4.046875 
Q 43.703125 -1.421875 29.984375 -1.421875 
Q 24.8125 -1.421875 18.96875 -0.25 
Q 13.140625 0.921875 6.890625 3.21875 
L 6.890625 13.375 
Q 12.890625 10.015625 18.65625 8.296875 
Q 24.421875 6.59375 29.984375 6.59375 
Q 38.421875 6.59375 43.015625 9.90625 
Q 47.609375 13.234375 47.609375 19.390625 
Q 47.609375 24.75 44.3125 27.78125 
Q 41.015625 30.8125 33.5 32.328125 
L 27.484375 33.5 
Q 16.453125 35.6875 11.515625 40.375 
Q 6.59375 45.0625 6.59375 53.421875 
Q 6.59375 63.09375 13.40625 68.65625 
Q 20.21875 74.21875 32.171875 74.21875 
Q 37.3125 74.21875 42.625 73.28125 
Q 47.953125 72.359375 53.515625 70.515625 
z
" id="DejaVuSans-83"/>
      <path d="M 30.609375 48.390625 
Q 23.390625 48.390625 19.1875 42.75 
Q 14.984375 37.109375 14.984375 27.296875 
Q 14.984375 17.484375 19.15625 11.84375 
Q 23.34375 6.203125 30.609375 6.203125 
Q 37.796875 6.203125 41.984375 11.859375 
Q 46.1875 17.53125 46.1875 27.296875 
Q 46.1875 37.015625 41.984375 42.703125 
Q 37.796875 48.390625 30.609375 48.390625 
z
M 30.609375 56 
Q 42.328125 56 49.015625 48.375 
Q 55.71875 40.765625 55.71875 27.296875 
Q 55.71875 13.875 49.015625 6.21875 
Q 42.328125 -1.421875 30.609375 -1.421875 
Q 18.84375 -1.421875 12.171875 6.21875 
Q 5.515625 13.875 5.515625 27.296875 
Q 5.515625 40.765625 12.171875 48.375 
Q 18.84375 56 30.609375 56 
z
" id="DejaVuSans-111"/>
      <path d="M 9.421875 75.984375 
L 18.40625 75.984375 
L 18.40625 0 
L 9.421875 0 
z
" id="DejaVuSans-108"/>
      <path d="M 8.5 21.578125 
L 8.5 54.6875 
L 17.484375 54.6875 
L 17.484375 21.921875 
Q 17.484375 14.15625 20.5 10.265625 
Q 23.53125 6.390625 29.59375 6.390625 
Q 36.859375 6.390625 41.078125 11.03125 
Q 45.3125 15.671875 45.3125 23.6875 
L 45.3125 54.6875 
L 54.296875 54.6875 
L 54.296875 0 
L 45.3125 0 
L 45.3125 8.40625 
Q 42.046875 3.421875 37.71875 1 
Q 33.40625 -1.421875 27.6875 -1.421875 
Q 18.265625 -1.421875 13.375 4.4375 
Q 8.5 10.296875 8.5 21.578125 
z
M 31.109375 56 
z
" id="DejaVuSans-117"/>
      <path d="M 18.3125 70.21875 
L 18.3125 54.6875 
L 36.8125 54.6875 
L 36.8125 47.703125 
L 18.3125 47.703125 
L 18.3125 18.015625 
Q 18.3125 11.328125 20.140625 9.421875 
Q 21.96875 7.515625 27.59375 7.515625 
L 36.8125 7.515625 
L 36.8125 0 
L 27.59375 0 
Q 17.1875 0 13.234375 3.875 
Q 9.28125 7.765625 9.28125 18.015625 
L 9.28125 47.703125 
L 2.6875 47.703125 
L 2.6875 54.6875 
L 9.28125 54.6875 
L 9.28125 70.21875 
z
" id="DejaVuSans-116"/>
      <path d="M 9.421875 54.6875 
L 18.40625 54.6875 
L 18.40625 0 
L 9.421875 0 
z
M 9.421875 75.984375 
L 18.40625 75.984375 
L 18.40625 64.59375 
L 9.421875 64.59375 
z
" id="DejaVuSans-105"/>
      <path d="M 54.890625 33.015625 
L 54.890625 0 
L 45.90625 0 
L 45.90625 32.71875 
Q 45.90625 40.484375 42.875 44.328125 
Q 39.84375 48.1875 33.796875 48.1875 
Q 26.515625 48.1875 22.3125 43.546875 
Q 18.109375 38.921875 18.109375 30.90625 
L 18.109375 0 
L 9.078125 0 
L 9.078125 54.6875 
L 18.109375 54.6875 
L 18.109375 46.1875 
Q 21.34375 51.125 25.703125 53.5625 
Q 30.078125 56 35.796875 56 
Q 45.21875 56 50.046875 50.171875 
Q 54.890625 44.34375 54.890625 33.015625 
z
" id="DejaVuSans-110"/>
      <path id="DejaVuSans-32"/>
      <path d="M 54.890625 33.015625 
L 54.890625 0 
L 45.90625 0 
L 45.90625 32.71875 
Q 45.90625 40.484375 42.875 44.328125 
Q 39.84375 48.1875 33.796875 48.1875 
Q 26.515625 48.1875 22.3125 43.546875 
Q 18.109375 38.921875 18.109375 30.90625 
L 18.109375 0 
L 9.078125 0 
L 9.078125 75.984375 
L 18.109375 75.984375 
L 18.109375 46.1875 
Q 21.34375 51.125 25.703125 53.5625 
Q 30.078125 56 35.796875 56 
Q 45.21875 56 50.046875 50.171875 
Q 54.890625 44.34375 54.890625 33.015625 
z
" id="DejaVuSans-104"/>
      <path d="M 34.28125 27.484375 
Q 23.390625 27.484375 19.1875 25 
Q 14.984375 22.515625 14.984375 16.5 
Q 14.984375 11.71875 18.140625 8.90625 
Q 21.296875 6.109375 26.703125 6.109375 
Q 34.1875 6.109375 38.703125 11.40625 
Q 43.21875 16.703125 43.21875 25.484375 
L 43.21875 27.484375 
z
M 52.203125 31.203125 
L 52.203125 0 
L 43.21875 0 
L 43.21875 8.296875 
Q 40.140625 3.328125 35.546875 0.953125 
Q 30.953125 -1.421875 24.3125 -1.421875 
Q 15.921875 -1.421875 10.953125 3.296875 
Q 6 8.015625 6 15.921875 
Q 6 25.140625 12.171875 29.828125 
Q 18.359375 34.515625 30.609375 34.515625 
L 43.21875 34.515625 
L 43.21875 35.40625 
Q 43.21875 41.609375 39.140625 45 
Q 35.0625 48.390625 27.6875 48.390625 
Q 23 48.390625 18.546875 47.265625 
Q 14.109375 46.140625 10.015625 43.890625 
L 10.015625 52.203125 
Q 14.9375 54.109375 19.578125 55.046875 
Q 24.21875 56 28.609375 56 
Q 40.484375 56 46.34375 49.84375 
Q 52.203125 43.703125 52.203125 31.203125 
z
" id="DejaVuSans-97"/>
      <path d="M 41.109375 46.296875 
Q 39.59375 47.171875 37.8125 47.578125 
Q 36.03125 48 33.890625 48 
Q 26.265625 48 22.1875 43.046875 
Q 18.109375 38.09375 18.109375 28.8125 
L 18.109375 0 
L 9.078125 0 
L 9.078125 54.6875 
L 18.109375 54.6875 
L 18.109375 46.1875 
Q 20.953125 51.171875 25.484375 53.578125 
Q 30.03125 56 36.53125 56 
Q 37.453125 56 38.578125 55.875 
Q 39.703125 55.765625 41.0625 55.515625 
z
" id="DejaVuSans-114"/>
      <path d="M 52 44.1875 
Q 55.375 50.25 60.0625 53.125 
Q 64.75 56 71.09375 56 
Q 79.640625 56 84.28125 50.015625 
Q 88.921875 44.046875 88.921875 33.015625 
L 88.921875 0 
L 79.890625 0 
L 79.890625 32.71875 
Q 79.890625 40.578125 77.09375 44.375 
Q 74.3125 48.1875 68.609375 48.1875 
Q 61.625 48.1875 57.5625 43.546875 
Q 53.515625 38.921875 53.515625 30.90625 
L 53.515625 0 
L 44.484375 0 
L 44.484375 32.71875 
Q 44.484375 40.625 41.703125 44.40625 
Q 38.921875 48.1875 33.109375 48.1875 
Q 26.21875 48.1875 22.15625 43.53125 
Q 18.109375 38.875 18.109375 30.90625 
L 18.109375 0 
L 9.078125 0 
L 9.078125 54.6875 
L 18.109375 54.6875 
L 18.109375 46.1875 
Q 21.1875 51.21875 25.484375 53.609375 
Q 29.78125 56 35.6875 56 
Q 41.65625 56 45.828125 52.96875 
Q 50 49.953125 52 44.1875 
z
" id="DejaVuSans-109"/>
      <path d="M 48.78125 52.59375 
L 48.78125 44.1875 
Q 44.96875 46.296875 41.140625 47.34375 
Q 37.3125 48.390625 33.40625 48.390625 
Q 24.65625 48.390625 19.8125 42.84375 
Q 14.984375 37.3125 14.984375 27.296875 
Q 14.984375 17.28125 19.8125 11.734375 
Q 24.65625 6.203125 33.40625 6.203125 
Q 37.3125 6.203125 41.140625 7.25 
Q 44.96875 8.296875 48.78125 10.40625 
L 48.78125 2.09375 
Q 45.015625 0.34375 40.984375 -0.53125 
Q 36.96875 -1.421875 32.421875 -1.421875 
Q 20.0625 -1.421875 12.78125 6.34375 
Q 5.515625 14.109375 5.515625 27.296875 
Q 5.515625 40.671875 12.859375 48.328125 
Q 20.21875 56 33.015625 56 
Q 37.15625 56 41.109375 55.140625 
Q 45.0625 54.296875 48.78125 52.59375 
z
" id="DejaVuSans-99"/>
      <path d="M 44.28125 53.078125 
L 44.28125 44.578125 
Q 40.484375 46.53125 36.375 47.5 
Q 32.28125 48.484375 27.875 48.484375 
Q 21.1875 48.484375 17.84375 46.4375 
Q 14.5 44.390625 14.5 40.28125 
Q 14.5 37.15625 16.890625 35.375 
Q 19.28125 33.59375 26.515625 31.984375 
L 29.59375 31.296875 
Q 39.15625 29.25 43.1875 25.515625 
Q 47.21875 21.78125 47.21875 15.09375 
Q 47.21875 7.46875 41.1875 3.015625 
Q 35.15625 -1.421875 24.609375 -1.421875 
Q 20.21875 -1.421875 15.453125 -0.5625 
Q 10.6875 0.296875 5.421875 2 
L 5.421875 11.28125 
Q 10.40625 8.6875 15.234375 7.390625 
Q 20.0625 6.109375 24.8125 6.109375 
Q 31.15625 6.109375 34.5625 8.28125 
Q 37.984375 10.453125 37.984375 14.40625 
Q 37.984375 18.0625 35.515625 20.015625 
Q 33.0625 21.96875 24.703125 23.78125 
L 21.578125 24.515625 
Q 13.234375 26.265625 9.515625 29.90625 
Q 5.8125 33.546875 5.8125 39.890625 
Q 5.8125 47.609375 11.28125 51.796875 
Q 16.75 56 26.8125 56 
Q 31.78125 56 36.171875 55.265625 
Q 40.578125 54.546875 44.28125 53.078125 
z
" id="DejaVuSans-115"/>
     </defs>
     <use xlink:href="#DejaVuSans-83"/>
     <use x="63.476562" xlink:href="#DejaVuSans-111"/>
     <use x="124.658203" xlink:href="#DejaVuSans-108"/>
     <use x="152.441406" xlink:href="#DejaVuSans-117"/>
     <use x="215.820312" xlink:href="#DejaVuSans-116"/>
     <use x="255.029297" xlink:href="#DejaVuSans-105"/>
     <use x="282.8125" xlink:href="#DejaVuSans-111"/>
     <use x="343.994141" xlink:href="#DejaVuSans-110"/>
     <use x="407.373047" xlink:href="#DejaVuSans-32"/>
     <use x="439.160156" xlink:href="#DejaVuSans-116"/>
     <use x="478.369141" xlink:href="#DejaVuSans-111"/>
     <use x="539.550781" xlink:href="#DejaVuSans-32"/>
     <use x="571.337891" xlink:href="#DejaVuSans-104"/>
     <use x="634.716797" xlink:href="#DejaVuSans-97"/>
     <use x="695.996094" xlink:href="#DejaVuSans-114"/>
     <use x="735.359375" xlink:href="#DejaVuSans-109"/>
     <use x="832.771484" xlink:href="#DejaVuSans-111"/>
     <use x="893.953125" xlink:href="#DejaVuSans-110"/>
     <use x="957.332031" xlink:href="#DejaVuSans-105"/>
     <use x="985.115234" xlink:href="#DejaVuSans-99"/>
     <use x="1040.095703" xlink:href="#DejaVuSans-32"/>
     <use x="1071.882812" xlink:href="#DejaVuSans-111"/>
     <use x="1133.064453" xlink:href="#DejaVuSans-115"/>
     <use x="1185.164062" xlink:href="#DejaVuSans-99"/>
     <use x="1240.144531" xlink:href="#DejaVuSans-105"/>
     <use x="1267.927734" xlink:href="#DejaVuSans-108"/>
     <use x="1295.710938" xlink:href="#DejaVuSans-108"/>
     <use x="1323.494141" xlink:href="#DejaVuSans-97"/>
     <use x="1384.773438" xlink:href="#DejaVuSans-116"/>
     <use x="1423.982422" xlink:href="#DejaVuSans-111"/>
     <use x="1485.164062" xlink:href="#DejaVuSans-114"/>
    </g>
   </g>
   <g id="legend_1">
    <g id="patch_11">
     <path d="M 64.6 302.584 
L 121.9 302.584 
Q 123.9 302.584 123.9 300.584 
L 123.9 272.22775 
Q 123.9 270.22775 121.9 270.22775 
L 64.6 270.22775 
Q 62.6 270.22775 62.6 272.22775 
L 62.6 300.584 
Q 62.6 302.584 64.6 302.584 
z
" style="fill:#ffffff;opacity:0.8;stroke:#cccccc;stroke-linejoin:miter;"/>
    </g>
    <g id="line2d_32">
     <path d="M 66.6 278.326187 
L 86.6 278.326187 
" style="fill:none;stroke:#0000ff;stroke-linecap:square;stroke-width:1.5;"/>
    </g>
    <g id="line2d_33"/>
    <g id="text_28">
     <!-- $V_1(x)$ -->
     <g transform="translate(94.6 281.826187)scale(0.1 -0.1)">
      <use transform="translate(0 0.125)" xlink:href="#DejaVuSans-Oblique-86"/>
      <use transform="translate(68.408203 -16.28125)scale(0.7)" xlink:href="#DejaVuSans-49"/>
      <use transform="translate(115.678711 0.125)" xlink:href="#DejaVuSans-40"/>
      <use transform="translate(154.692383 0.125)" xlink:href="#DejaVuSans-Oblique-120"/>
      <use transform="translate(213.87207 0.125)" xlink:href="#DejaVuSans-41"/>
     </g>
    </g>
    <g id="line2d_34">
     <path d="M 66.6 293.004312 
L 86.6 293.004312 
" style="fill:none;stroke:#808080;stroke-dasharray:1.85,0.8;stroke-dashoffset:0;stroke-width:0.5;"/>
    </g>
    <g id="line2d_35"/>
    <g id="text_29">
     <!-- $V_2(x)$ -->
     <g transform="translate(94.6 296.504312)scale(0.1 -0.1)">
      <use transform="translate(0 0.125)" xlink:href="#DejaVuSans-Oblique-86"/>
      <use transform="translate(68.408203 -16.28125)scale(0.7)" xlink:href="#DejaVuSans-50"/>
      <use transform="translate(115.678711 0.125)" xlink:href="#DejaVuSans-40"/>
      <use transform="translate(154.692383 0.125)" xlink:href="#DejaVuSans-Oblique-120"/>
      <use transform="translate(213.87207 0.125)" xlink:href="#DejaVuSans-41"/>
     </g>
    </g>
   </g>
  </g>
 </g>
 <defs>
  <clipPath id="pd4e577b44d">
   <rect height="266.112" width="357.12" x="57.6" y="41.472"/>
  </clipPath>
 </defs>
</svg>
